# Blender 4.2.1 LTS
# www.blender.org
mtllib pyramid.mtl
o Cone
v 0.000000 -1.000000 -1.000000
v 1.000000 -1.000000 0.000000
v 0.000000 -1.000000 1.000000
v -1.000000 -1.000000 0.000000
v 0.000000 1.000000 0.000000
vn 0.6667 0.3333 -0.6667
vn 0.6667 0.3333 0.6667
vn -0.0000 -1.0000 -0.0000
vn -0.6667 0.3333 0.6667
vn -0.6667 0.3333 -0.6667
vt 0.333860 0.658446
vt 0.333860 0.331688
vt 0.660618 0.331688
vt 0.333860 0.004929
vt 0.668176 0.993789
vt 0.994934 0.667031
vt 0.668176 0.340273
vt 0.341418 0.667031
vt 0.007101 0.331688
s 0
f 1/1/1 5/2/1 2/3/1
f 2/3/2 5/2/2 3/4/2
f 1/5/3 2/6/3 3/7/3 4/8/3
f 3/4/4 5/2/4 4/9/4
f 4/9/5 5/2/5 1/1/5
